<svg width="512" height="512" viewBox="0 0 512 512" fill="none" xmlns="http://www.w3.org/2000/svg">
<rect width="512" height="512" rx="165" fill="#131111"/>
<rect width="512" height="512" rx="165" fill="#131111"/>
<path d="M130.078 115.031V129.078C130.078 143.125 158.172 143.125 158.172 157.172C158.172 171.219 130.078 171.219 130.078 185.266C130.078 199.313 158.172 199.313 158.172 213.359C158.172 227.406 130.078 227.406 130.078 241.453C130.078 255.5 158.172 255.5 158.172 269.547" stroke="white" stroke-width="17" stroke-linecap="round" stroke-linejoin="round"/>
<path d="M340.781 171.219H340.922" stroke="white" stroke-width="17" stroke-linecap="round" stroke-linejoin="round"/>
<path d="M172.219 339.781H172.36" stroke="white" stroke-width="17" stroke-linecap="round" stroke-linejoin="round"/>
<path d="M380.534 210.971C385.754 205.751 389.895 199.554 392.721 192.733C395.546 185.912 397 178.602 397 171.219C397 163.836 395.546 156.526 392.721 149.705C389.895 142.884 385.754 136.686 380.534 131.466C375.314 126.246 369.116 122.105 362.295 119.279C355.474 116.454 348.164 115 340.781 115C333.399 115 326.088 116.454 319.267 119.279C312.446 122.105 306.249 126.246 301.029 131.466L132.466 300.029C121.923 310.572 116 324.871 116 339.781C116 347.164 117.454 354.474 120.279 361.295C123.105 368.116 127.246 374.314 132.466 379.534C137.686 384.754 143.884 388.895 150.705 391.721C157.526 394.546 164.836 396 172.219 396C187.129 396 201.428 390.077 211.971 379.534L380.534 210.971Z" stroke="white" stroke-width="17" stroke-linecap="round" stroke-linejoin="round"/>
<path d="M340.781 250.724V395.969C355.683 395.969 369.975 390.049 380.512 379.512C391.049 368.975 396.969 354.683 396.969 339.781V171.219" stroke="white" stroke-width="17" stroke-linecap="round" stroke-linejoin="round"/>
</svg>
